{
  "accessors": [
    {
      "bufferView": 2,
      "componentType": 5126,
      "count": 252,
      "max": [
        1.0659749507904053,
        1.0673449039459229,
        0.5151220560073853
      ],
      "min": [
        -1.0659749507904053,
        -1.0673449039459229,
        -0.5151220560073853
      ],
      "type": "VEC3"
    },
    {
      "bufferView": 2,
      "byteOffset": 3024,
      "componentType": 5126,
      "count": 252,
      "max": [
        0.9987165331840515,
        1.0,
        1.0
      ],
      "min": [
        -0.9987165331840515,
        -1.0,
        -1.0
      ],
      "type": "VEC3"
    },
    {
      "bufferView": 3,
      "componentType": 5126,
      "count": 252,
      "max": [
        4.030282070743851e-06,
        0.8978092670440674,
        1.0,
        1.0
      ],
      "min": [
        -0.440395325422287,
        -0.9680793285369873,
        -1.3878802462841122e-07,
        1.0
      ],
      "type": "VEC4"
    },
    {
      "bufferView": 1,
      "componentType": 5126,
      "count": 252,
      "max": [
        0.5009512901306152,
        0.9857893586158752
      ],
      "min": [
        0.014210645109415054,
        0.014210645109415054
      ],
      "type": "VEC2"
    },
    {
      "bufferView": 0,
      "componentType": 5125,
      "count": 744,
      "type": "SCALAR"
    },
    {
      "bufferView": 2,
      "byteOffset": 6048,
      "componentType": 5126,
      "count": 195,
      "max": [
        0.05509866029024124,
        0.05509866029024124,
        0.26783716678619385
      ],
      "min": [
        -0.05509866029024124,
        -0.05509866029024124,
        -0.26783716678619385
      ],
      "type": "VEC3"
    },
    {
      "bufferView": 2,
      "byteOffset": 8388,
      "componentType": 5126,
      "count": 195,
      "max": [
        1.0,
        1.0,
        1.0
      ],
      "min": [
        -1.0,
        -1.0,
        0.0
      ],
      "type": "VEC3"
    },
    {
      "bufferView": 3,
      "byteOffset": 4032,
      "componentType": 5126,
      "count": 195,
      "max": [
        0.13007239997386932,
        0.13007238507270813,
        1.0,
        1.0
      ],
      "min": [
        -0.8690621256828308,
        -0.7911726236343384,
        -0.9901258945465088,
        1.0
      ],
      "type": "VEC4"
    },
    {
      "bufferView": 1,
      "byteOffset": 2016,
      "componentType": 5126,
      "count": 195,
      "max": [
        0.6183563470840454,
        0.12302657216787338
      ],
      "min": [
        0.5293725728988647,
        0.014210645109415054
      ],
      "type": "VEC2"
    },
    {
      "bufferView": 0,
      "byteOffset": 2976,
      "componentType": 5125,
      "count": 864,
      "type": "SCALAR"
    },
    {
      "bufferView": 2,
      "byteOffset": 10728,
      "componentType": 5126,
      "count": 12,
      "max": [
        0.001358680077828467,
        0.001358680077828467,
        0.010581682436168194
      ],
      "min": [
        -0.001358680077828467,
        -0.001358680077828467,
        -0.010581682436168194
      ],
      "type": "VEC3"
    },
    {
      "bufferView": 2,
      "byteOffset": 10872,
      "componentType": 5126,
      "count": 12,
      "max": [
        0.7071067690849304,
        0.7071067690849304,
        0.5773502588272095
      ],
      "min": [
        -0.7071067690849304,
        -0.7071067690849304,
        0.0
      ],
      "type": "VEC3"
    },
    {
      "bufferView": 3,
      "byteOffset": 7152,
      "componentType": 5126,
      "count": 12,
      "max": [
        0.8164966106414795,
        0.7071068286895752,
        0.40824833512306213,
        1.0
      ],
      "min": [
        -0.8164966106414795,
        -0.8164966702461243,
        -0.40824833512306213,
        1.0
      ],
      "type": "VEC4"
    },
    {
      "bufferView": 1,
      "byteOffset": 3576,
      "componentType": 5126,
      "count": 12,
      "max": [
        0.5852463245391846,
        0.13949304819107056
      ],
      "min": [
        0.576951265335083,
        0.09366000443696976
      ],
      "type": "VEC2"
    },
    {
      "bufferView": 0,
      "byteOffset": 6432,
      "componentType": 5125,
      "count": 30,
      "type": "SCALAR"
    },
    {
      "bufferView": 2,
      "byteOffset": 11016,
      "componentType": 5126,
      "count": 4,
      "max": [
        0.043523140251636505,
        3.0250268956422133e-09,
        0.06920454651117325
      ],
      "min": [
        -0.043523140251636505,
        -3.0250268956422133e-09,
        -0.06920454651117325
      ],
      "type": "VEC3"
    },
    {
      "bufferView": 2,
      "byteOffset": 11064,
      "componentType": 5126,
      "count": 4,
      "max": [
        0.0,
        -1.0,
        -4.371138828673793e-08
      ],
      "min": [
        0.0,
        -1.0,
        -4.371138828673793e-08
      ],
      "type": "VEC3"
    },
    {
      "bufferView": 3,
      "byteOffset": 7344,
      "componentType": 5126,
      "count": 4,
      "max": [
        0.0,
        4.371138828673793e-08,
        -1.0,
        1.0
      ],
      "min": [
        0.0,
        4.371138828673793e-08,
        -1.0,
        1.0
      ],
      "type": "VEC4"
    },
    {
      "bufferView": 1,
      "byteOffset": 3672,
      "componentType": 5126,
      "count": 4,
      "max": [
        0.7114090919494629,
        0.05474354326725006
      ],
      "min": [
        0.6533907055854797,
        0.01825544238090515
      ],
      "type": "VEC2"
    },
    {
      "bufferView": 0,
      "byteOffset": 6552,
      "componentType": 5125,
      "count": 6,
      "type": "SCALAR"
    },
    {
      "bufferView": 2,
      "byteOffset": 11112,
      "componentType": 5126,
      "count": 4,
      "max": [
        0.043523140251636505,
        3.0250268956422133e-09,
        0.06920454651117325
      ],
      "min": [
        -0.043523140251636505,
        -3.0250268956422133e-09,
        -0.06920454651117325
      ],
      "type": "VEC3"
    },
    {
      "bufferView": 2,
      "byteOffset": 11160,
      "componentType": 5126,
      "count": 4,
      "max": [
        0.0,
        -1.0,
        -4.371138828673793e-08
      ],
      "min": [
        0.0,
        -1.0,
        -4.371138828673793e-08
      ],
      "type": "VEC3"
    },
    {
      "bufferView": 3,
      "byteOffset": 7408,
      "componentType": 5126,
      "count": 4,
      "max": [
        0.0,
        4.371138828673793e-08,
        -1.0,
        1.0
      ],
      "min": [
        0.0,
        4.371138828673793e-08,
        -1.0,
        1.0
      ],
      "type": "VEC4"
    },
    {
      "bufferView": 1,
      "byteOffset": 3704,
      "componentType": 5126,
      "count": 4,
      "max": [
        0.7114090919494629,
        0.05474354326725006
      ],
      "min": [
        0.6533907055854797,
        0.01825544238090515
      ],
      "type": "VEC2"
    },
    {
      "bufferView": 0,
      "byteOffset": 6576,
      "componentType": 5125,
      "count": 6,
      "type": "SCALAR"
    }
  ],
  "asset": {
    "extras": {
      "author": "patrakeevasveta (https://sketchfab.com/patrakeevasveta)",
      "license": "CC-BY-4.0 (http://creativecommons.org/licenses/by/4.0/)",
      "source": "https://sketchfab.com/3d-models/chocolate-cake-68ee82fd97bf45eeadbeeaa556fa669b",
      "title": "Chocolate cake"
    },
    "generator": "Sketchfab-11.20.1",
    "version": "2.0"
  },
  "bufferViews": [
    {
      "buffer": 0,
      "byteLength": 6600,
      "name": "floatBufferViews",
      "target": 34963
    },
    {
      "buffer": 0,
      "byteLength": 3736,
      "byteOffset": 6600,
      "byteStride": 8,
      "name": "floatBufferViews",
      "target": 34962
    },
    {
      "buffer": 0,
      "byteLength": 11208,
      "byteOffset": 10336,
      "byteStride": 12,
      "name": "floatBufferViews",
      "target": 34962
    },
    {
      "buffer": 0,
      "byteLength": 7472,
      "byteOffset": 21544,
      "byteStride": 16,
      "name": "floatBufferViews",
      "target": 34962
    }
  ],
  "buffers": [
    {
      "byteLength": 29016,
      "uri": "scene.bin"
    }
  ],
  "images": [
    {
      "uri": "textures/cake_baseColor.png"
    },
    {
      "uri": "textures/cake_metallicRoughness.png"
    },
    {
      "uri": "textures/cake_emissive.jpeg"
    },
    {
      "uri": "textures/cake_normal.png"
    }
  ],
  "materials": [
    {
      "alphaMode": "BLEND",
      "doubleSided": true,
      "emissiveFactor": [
        1.0,
        1.0,
        1.0
      ],
      "emissiveTexture": {
        "index": 2
      },
      "name": "cake",
      "normalTexture": {
        "index": 3
      },
      "pbrMetallicRoughness": {
        "baseColorTexture": {
          "index": 0
        },
        "metallicFactor": 0.0,
        "metallicRoughnessTexture": {
          "index": 1
        }
      }
    }
  ],
  "meshes": [
    {
      "name": "cake_lp_cake_0",
      "primitives": [
        {
          "attributes": {
            "NORMAL": 1,
            "POSITION": 0,
            "TANGENT": 2,
            "TEXCOORD_0": 3
          },
          "indices": 4,
          "material": 0,
          "mode": 4
        }
      ]
    },
    {
      "name": "Cylinder_cake_0",
      "primitives": [
        {
          "attributes": {
            "NORMAL": 6,
            "POSITION": 5,
            "TANGENT": 7,
            "TEXCOORD_0": 8
          },
          "indices": 9,
          "material": 0,
          "mode": 4
        }
      ]
    },
    {
      "name": "Cube_cake_0",
      "primitives": [
        {
          "attributes": {
            "NORMAL": 11,
            "POSITION": 10,
            "TANGENT": 12,
            "TEXCOORD_0": 13
          },
          "indices": 14,
          "material": 0,
          "mode": 4
        }
      ]
    },
    {
      "name": "Plane_cake_0",
      "primitives": [
        {
          "attributes": {
            "NORMAL": 16,
            "POSITION": 15,
            "TANGENT": 17,
            "TEXCOORD_0": 18
          },
          "indices": 19,
          "material": 0,
          "mode": 4
        }
      ]
    },
    {
      "name": "Plane.001_cake_0",
      "primitives": [
        {
          "attributes": {
            "NORMAL": 21,
            "POSITION": 20,
            "TANGENT": 22,
            "TEXCOORD_0": 23
          },
          "indices": 24,
          "material": 0,
          "mode": 4
        }
      ]
    }
  ],
  "nodes": [
    {
      "children": [
        1
      ],
      "matrix": [
        0.0016198488883674145,
        0.0,
        0.0,
        0.0,
        0.0,
        3.596787064557937e-19,
        -0.0016198488883674145,
        0.0,
        0.0,
        0.0016198488883674145,
        3.596787064557937e-19,
        0.0,
        0.0,
        0.0,
        0.0,
        1.0
      ],
      "name": "Sketchfab_model"
    },
    {
      "children": [
        2
      ],
      "matrix": [
        1.0,
        0.0,
        0.0,
        0.0,
        0.0,
        0.0,
        1.0,
        0.0,
        0.0,
        -1.0,
        0.0,
        0.0,
        0.0,
        0.0,
        0.0,
        1.0
      ],
      "name": "cake.fbx"
    },
    {
      "children": [
        3,
        5,
        7,
        9,
        11
      ],
      "name": "RootNode"
    },
    {
      "children": [
        4
      ],
      "matrix": [
        100.0,
        0.0,
        0.0,
        0.0,
        0.0,
        -1.629206793918314e-05,
        -99.99999999999868,
        0.0,
        0.0,
        99.99999999999868,
        -1.629206793918314e-05,
        0.0,
        0.0,
        0.0,
        0.0,
        1.0
      ],
      "name": "cake_lp"
    },
    {
      "mesh": 0,
      "name": "cake_lp_cake_0"
    },
    {
      "children": [
        6
      ],
      "matrix": [
        100.0,
        0.0,
        0.0,
        0.0,
        0.0,
        -1.629206793918314e-05,
        -99.99999999999868,
        0.0,
        0.0,
        99.99999999999868,
        -1.629206793918314e-05,
        0.0,
        0.0,
        76.56834411621094,
        0.0,
        1.0
      ],
      "name": "Cylinder"
    },
    {
      "mesh": 1,
      "name": "Cylinder_cake_0"
    },
    {
      "children": [
        8
      ],
      "matrix": [
        116.38536071777344,
        0.0,
        0.0,
        0.0,
        0.0,
        -1.8961582039403016e-05,
        -116.3853607177719,
        0.0,
        0.0,
        116.3853607177719,
        -1.8961582039403016e-05,
        0.0,
        0.0,
        104.2530746459961,
        0.0,
        1.0
      ],
      "name": "Cube"
    },
    {
      "mesh": 2,
      "name": "Cube_cake_0"
    },
    {
      "children": [
        10
      ],
      "matrix": [
        100.0,
        0.0,
        0.0,
        0.0,
        0.0,
        -1.629206793918314e-05,
        -99.99999999999868,
        0.0,
        0.0,
        99.99999999999868,
        -1.629206793918314e-05,
        0.0,
        0.0,
        111.74726867675781,
        0.0,
        1.0
      ],
      "name": "Plane"
    },
    {
      "mesh": 3,
      "name": "Plane_cake_0"
    },
    {
      "children": [
        12
      ],
      "matrix": [
        1.9470718848335622e-05,
        0.0,
        -99.99999999999811,
        0.0,
        -99.99999999999679,
        -1.6292067961387602e-05,
        -1.9470718859437852e-05,
        0.0,
        -1.6292067955836487e-05,
        99.99999999999869,
        -3.197442310920451e-12,
        0.0,
        0.0,
        111.74726867675781,
        0.0,
        1.0
      ],
      "name": "Plane.001"
    },
    {
      "mesh": 4,
      "name": "Plane.001_cake_0"
    }
  ],
  "samplers": [
    {
      "magFilter": 9729,
      "minFilter": 9987,
      "wrapS": 10497,
      "wrapT": 10497
    }
  ],
  "scene": 0,
  "scenes": [
    {
      "name": "Sketchfab_Scene",
      "nodes": [
        0
      ]
    }
  ],
  "textures": [
    {
      "sampler": 0,
      "source": 0
    },
    {
      "sampler": 0,
      "source": 1
    },
    {
      "sampler": 0,
      "source": 2
    },
    {
      "sampler": 0,
      "source": 3
    }
  ]
}
