{
  "accessors": [
    {
      "bufferView": 2,
      "componentType": 5126,
      "count": 1323,
      "max": [
        9.1697778701782227,
        19.694961547851562,
        9.0967521667480469
      ],
      "min": [
        -9.8275775909423828,
        9.3971328735351562,
        -9.1135120391845703
      ],
      "type": "VEC3"
    },
    {
      "bufferView": 2,
      "byteOffset": 15876,
      "componentType": 5126,
      "count": 1323,
      "max": [
        0.99893033504486084,
        0.511557936668396,
        0.9990268349647522
      ],
      "min": [
        -0.99965119361877441,
        -0.99459052085876465,
        -0.99586665630340576
      ],
      "type": "VEC3"
    },
    {
      "bufferView": 1,
      "componentType": 5126,
      "count": 1323,
      "max": [
        1.7950389385223389,
        0.48566234111785889
      ],
      "min": [
        -0.79503917694091797,
        0.010166466236114502
      ],
      "type": "VEC2"
    },
    {
      "bufferView": 0,
      "componentType": 5125,
      "count": 5040,
      "max": [
        1322
      ],
      "min": [
        0
      ],
      "type": "SCALAR"
    },
    {
      "bufferView": 2,
      "byteOffset": 31752,
      "componentType": 5126,
      "count": 12385,
      "max": [
        10.596367835998535,
        19.480422973632812,
        10.605415344238281
      ],
      "min": [
        -10.845823287963867,
        0.13095736503601074,
        -10.655612945556641
      ],
      "type": "VEC3"
    },
    {
      "bufferView": 2,
      "byteOffset": 180372,
      "componentType": 5126,
      "count": 12385,
      "max": [
        0.99995452165603638,
        0.99999916553497314,
        0.99944573640823364
      ],
      "min": [
        -0.99994117021560669,
        -0.99999904632568359,
        -0.99991089105606079
      ],
      "type": "VEC3"
    },
    {
      "bufferView": 3,
      "componentType": 5126,
      "count": 12385,
      "max": [
        0.99999940395355225,
        0.99970364570617676,
        0.9999624490737915,
        1
      ],
      "min": [
        -0.99998980760574341,
        -0.99801254272460938,
        -0.99996060132980347,
        1
      ],
      "type": "VEC4"
    },
    {
      "bufferView": 1,
      "byteOffset": 10584,
      "componentType": 5126,
      "count": 12385,
      "max": [
        0.99690538644790649,
        0.9960930347442627
      ],
      "min": [
        0.0069176680408418179,
        0.0030846050940454006
      ],
      "type": "VEC2"
    },
    {
      "bufferView": 0,
      "byteOffset": 20160,
      "componentType": 5125,
      "count": 55170,
      "max": [
        12384
      ],
      "min": [
        0
      ],
      "type": "SCALAR"
    },
    {
      "bufferView": 2,
      "byteOffset": 328992,
      "componentType": 5126,
      "count": 674,
      "max": [
        7.611814022064209,
        1.2288320064544678,
        7.611814022064209
      ],
      "min": [
        -7.611814022064209,
        -1.4183800220489502,
        -7.611814022064209
      ],
      "type": "VEC3"
    },
    {
      "bufferView": 2,
      "byteOffset": 337080,
      "componentType": 5126,
      "count": 674,
      "max": [
        0.86074924468994141,
        1,
        0.86074924468994141
      ],
      "min": [
        -0.86074924468994141,
        -1,
        -0.86074924468994141
      ],
      "type": "VEC3"
    },
    {
      "bufferView": 1,
      "byteOffset": 109664,
      "componentType": 5126,
      "count": 674,
      "max": [
        0.96833199262619019,
        0.96756100654602051
      ],
      "min": [
        0.032333999872207642,
        0.026816999539732933
      ],
      "type": "VEC2"
    },
    {
      "bufferView": 0,
      "byteOffset": 240840,
      "componentType": 5125,
      "count": 3456,
      "max": [
        673
      ],
      "min": [
        0
      ],
      "type": "SCALAR"
    }
  ],
  "asset": {
    "extras": {
      "author": "Gianluca Tessicini (https://sketchfab.com/glucat)",
      "license": "SKETCHFAB Standard (https://sketchfab.com/licenses)",
      "source": "https://sketchfab.com/3d-models/cake-e9df1632af3e42f994a67528c15a8ae0",
      "title": "Cake!"
    },
    "generator": "Sketchfab-10.10.1-rc1",
    "version": "2.0"
  },
  "bufferViews": [
    {
      "buffer": 0,
      "byteLength": 254664,
      "byteOffset": 0,
      "name": "floatBufferViews",
      "target": 34963
    },
    {
      "buffer": 0,
      "byteLength": 115056,
      "byteOffset": 254664,
      "byteStride": 8,
      "name": "floatBufferViews",
      "target": 34962
    },
    {
      "buffer": 0,
      "byteLength": 345168,
      "byteOffset": 369720,
      "byteStride": 12,
      "name": "floatBufferViews",
      "target": 34962
    },
    {
      "buffer": 0,
      "byteLength": 198160,
      "byteOffset": 714888,
      "byteStride": 16,
      "name": "floatBufferViews",
      "target": 34962
    }
  ],
  "buffers": [
    {
      "byteLength": 913048,
      "uri": "scene.bin"
    }
  ],
  "images": [
    {
      "uri": "textures/Leaf_Mat_baseColor.png"
    },
    {
      "uri": "textures/CakeMat_baseColor.jpeg"
    },
    {
      "uri": "textures/CakeMat_metallicRoughness.png"
    },
    {
      "uri": "textures/CakeMat_normal.png"
    }
  ],
  "materials": [
    {
      "alphaMode": "BLEND",
      "doubleSided": true,
      "emissiveFactor": [
        0,
        0,
        0
      ],
      "name": "Leaf_Mat",
      "pbrMetallicRoughness": {
        "baseColorFactor": [
          1,
          1,
          1,
          1
        ],
        "baseColorTexture": {
          "index": 0,
          "texCoord": 0
        },
        "metallicFactor": 0,
        "roughnessFactor": 0.59999999999999998
      }
    },
    {
      "doubleSided": true,
      "emissiveFactor": [
        0,
        0,
        0
      ],
      "name": "CakeMat",
      "normalTexture": {
        "index": 3,
        "scale": 1,
        "texCoord": 0
      },
      "pbrMetallicRoughness": {
        "baseColorFactor": [
          1,
          1,
          1,
          1
        ],
        "baseColorTexture": {
          "index": 1,
          "texCoord": 0
        },
        "metallicFactor": 1,
        "metallicRoughnessTexture": {
          "index": 2,
          "texCoord": 0
        },
        "roughnessFactor": 1
      }
    },
    {
      "doubleSided": true,
      "emissiveFactor": [
        0,
        0,
        0
      ],
      "name": "PlateMat",
      "pbrMetallicRoughness": {
        "baseColorFactor": [
          1,
          1,
          1,
          1
        ],
        "metallicFactor": 0,
        "roughnessFactor": 0.59999999999999998
      }
    }
  ],
  "meshes": [
    {
      "name": "Cake__Leaf_Mat_0",
      "primitives": [
        {
          "attributes": {
            "NORMAL": 1,
            "POSITION": 0,
            "TEXCOORD_0": 2
          },
          "indices": 3,
          "material": 0,
          "mode": 4
        }
      ]
    },
    {
      "name": "Cake__CakeMat_0",
      "primitives": [
        {
          "attributes": {
            "NORMAL": 5,
            "POSITION": 4,
            "TANGENT": 6,
            "TEXCOORD_0": 7
          },
          "indices": 8,
          "material": 1,
          "mode": 4
        }
      ]
    },
    {
      "name": "Plate_PlateMat_0",
      "primitives": [
        {
          "attributes": {
            "NORMAL": 10,
            "POSITION": 9,
            "TEXCOORD_0": 11
          },
          "indices": 12,
          "material": 2,
          "mode": 4
        }
      ]
    }
  ],
  "nodes": [
    {
      "children": [
        1
      ],
      "name": "RootNode (gltf orientation matrix)",
      "rotation": [
        -0.70710678118654746,
        -0,
        -0,
        0.70710678118654757
      ]
    },
    {
      "children": [
        2
      ],
      "name": "RootNode (model correction matrix)"
    },
    {
      "children": [
        3
      ],
      "matrix": [
        1,
        0,
        0,
        0,
        0,
        0,
        1,
        0,
        0,
        -1,
        0,
        0,
        0,
        0,
        0,
        1
      ],
      "name": "26fd2d2c6c504b42a4e72031f59fa9ab.fbx"
    },
    {
      "children": [
        4,
        7
      ],
      "name": "RootNode"
    },
    {
      "children": [
        5,
        6
      ],
      "matrix": [
        1,
        0,
        0,
        0,
        0,
        1,
        0,
        0,
        0,
        0,
        1,
        0,
        0,
        0.59110671281814575,
        0,
        1
      ],
      "name": "Cake_"
    },
    {
      "mesh": 0,
      "name": "Cake__Leaf_Mat_0"
    },
    {
      "mesh": 1,
      "name": "Cake__CakeMat_0"
    },
    {
      "children": [
        8
      ],
      "matrix": [
        1.5359929800033569,
        0,
        0,
        0,
        0,
        0.40485286712646484,
        0,
        0,
        0,
        0,
        1.5359929800033569,
        0,
        0,
        0.57399898767471313,
        0,
        1
      ],
      "name": "Plate"
    },
    {
      "mesh": 2,
      "name": "Plate_PlateMat_0"
    }
  ],
  "samplers": [
    {
      "magFilter": 9729,
      "minFilter": 9987,
      "wrapS": 10497,
      "wrapT": 10497
    }
  ],
  "scene": 0,
  "scenes": [
    {
      "name": "OSG_Scene",
      "nodes": [
        0
      ]
    }
  ],
  "textures": [
    {
      "sampler": 0,
      "source": 0
    },
    {
      "sampler": 0,
      "source": 1
    },
    {
      "sampler": 0,
      "source": 2
    },
    {
      "sampler": 0,
      "source": 3
    }
  ]
}

